<svg xmlns="http://www.w3.org/2000/svg" viewBox="0 0 96 96"><defs><style>.cls-1,.cls-2{fill:none;stroke:#000;}.cls-1{stroke-miterlimit:10;}.cls-2{stroke-linecap:round;stroke-linejoin:round;}</style></defs><g id="Layer_2" data-name="Layer 2"><path class="cls-1" d="M67.63,43.05A19.63,19.63,0,1,0,31.72,54l0,0a63.76,63.76,0,0,1,5.19,8.75L40.29,70H56.15l2.94-6.77a44.12,44.12,0,0,1,4.74-8.59A19.46,19.46,0,0,0,67.63,43.05Z"/><rect x="37.29" y="71.66" width="21.43" height="9.11" rx="4.55"/><path class="cls-1" d="M53.11,79.69v.08c0,1.88-1,3.41-2.15,3.41H45c-1.19,0-2.15-1.53-2.15-3.41v-.08"/><path class="cls-2" d="M41.86,28.09s-9,3.3-9,11.65"/><line class="cls-2" x1="48" y1="20.3" x2="48" y2="12.82"/><line class="cls-2" x1="29.67" y1="25.65" x2="24.38" y2="20.37"/><line class="cls-2" x1="66.33" y1="25.65" x2="71.62" y2="20.37"/><line class="cls-2" x1="22.91" y1="40.26" x2="15.44" y2="40.26"/><line class="cls-2" x1="73.09" y1="40.26" x2="80.56" y2="40.26"/></g></svg>