<svg id="Layer_1" data-name="Layer 1" xmlns="http://www.w3.org/2000/svg" viewBox="0 0 96 96"><defs><style>.cls-1,.cls-2{fill:none;stroke:#000;stroke-miterlimit:10;}.cls-1{stroke-linecap:round;}</style></defs><line id="Line_425" data-name="Line 425" class="cls-1" x1="32.36" y1="33.35" x2="20.6" y2="21.4"/><line id="Line_426" data-name="Line 426" class="cls-1" x1="75.6" y1="76.4" x2="63.64" y2="64.64"/><line id="Line_427" data-name="Line 427" class="cls-1" x1="63.64" y1="33.35" x2="75.6" y2="21.4"/><line id="Line_428" data-name="Line 428" class="cls-1" x1="20.6" y1="76.4" x2="32.36" y2="64.64"/><circle id="Elipse_353_6_2" data-name="Elipse 353 6 2" class="cls-2" cx="48.1" cy="48.9" r="22.12"/><circle id="Elipse_353_5_2" data-name="Elipse 353 5 2" cx="75.6" cy="75.6" r="5.78"/><circle id="Elipse_353_4_2" data-name="Elipse 353 4 2" cx="20.4" cy="20.4" r="5.78"/><circle id="Elipse_353_3_3" data-name="Elipse 353 3 3" cx="20.4" cy="75.6" r="5.78"/><circle id="Elipse_353_2_3" data-name="Elipse 353 2 3" cx="75.6" cy="20.4" r="5.78"/><circle id="Elipse_353_1_6" data-name="Elipse 353 1 6" class="cls-2" cx="48.1" cy="48.9" r="22.12"/><path d="M75.6,69.82A5.75,5.75,0,0,0,71.1,72l4.5,4.42L71.1,72a5.78,5.78,0,1,0,4.5-2.16Z"/><path d="M20.4,26.18A5.76,5.76,0,0,0,24,24.89L20.6,21.4,24,24.89a5.77,5.77,0,1,0-3.63,1.29Z"/><path d="M20.4,69.82a5.78,5.78,0,1,0,5.78,5.78A5.72,5.72,0,0,0,25,72.05L20.6,76.4,25,72.05A5.75,5.75,0,0,0,20.4,69.82Z"/><path d="M81.38,20.4A5.78,5.78,0,1,0,72.05,25L75.6,21.4,72.05,25a5.72,5.72,0,0,0,3.55,1.23A5.78,5.78,0,0,0,81.38,20.4Z"/><circle cx="48" cy="40.06" r="9.31" transform="translate(-7.92 12.1) rotate(-13.28)"/><path d="M59.64,64.86V59.27a8.33,8.33,0,0,0-8.34-8.34H44.7a8.33,8.33,0,0,0-8.34,8.34v5.47a22.12,22.12,0,0,0,23.28.12Z"/></svg>