<svg width="166" height="32" viewBox="0 0 166 32" fill="none" xmlns="http://www.w3.org/2000/svg">
<g clip-path="url(#clip0_2223_278)">
<path d="M3.81123 23.0357C2.67122 22.5351 1.771 21.8494 1.11056 20.9786C0.450112 20.1078 0.0799264 19.1319 0 18.0508H5.07322C5.13212 18.6313 5.40134 19.1025 5.88511 19.46C6.36887 19.8176 6.9536 19.9985 7.65611 19.9985C8.29552 19.9985 8.7919 19.8723 9.14105 19.6241C9.49021 19.3759 9.66689 19.0478 9.66689 18.6481C9.66689 18.1686 9.41449 17.811 8.9181 17.5839C8.41751 17.3525 7.60563 17.1001 6.48666 16.8182C5.28776 16.5364 4.28658 16.2419 3.48731 15.9306C2.68805 15.6193 1.99816 15.1314 1.41764 14.4583C0.837124 13.7895 0.546865 12.8808 0.546865 11.7408C0.546865 10.7817 0.811884 9.90671 1.34192 9.11586C1.87196 8.32501 2.65019 7.70243 3.68503 7.2397C4.71566 6.78117 5.93979 6.5498 7.36164 6.5498C9.46497 6.5498 11.1182 7.07143 12.3297 8.11047C13.5412 9.14952 14.2353 10.5335 14.4162 12.254H9.6753C9.59537 11.6735 9.33877 11.215 8.90969 10.8742C8.48061 10.5335 7.91271 10.3652 7.21441 10.3652C6.61286 10.3652 6.15433 10.4788 5.83463 10.7102C5.51492 10.9415 5.35507 11.257 5.35507 11.6567C5.35507 12.1362 5.61167 12.498 6.12068 12.7378C6.62968 12.9776 7.42474 13.2173 8.50585 13.4571C9.74681 13.7768 10.7564 14.0923 11.5388 14.4036C12.3213 14.7149 13.0028 15.2155 13.5959 15.9054C14.1848 16.5953 14.4919 17.5208 14.5129 18.6818C14.5129 19.6619 14.2353 20.5369 13.6884 21.3067C13.1374 22.0766 12.3465 22.6823 11.3159 23.124C10.2853 23.5657 9.09057 23.7845 7.72762 23.7845C6.26791 23.7845 4.96806 23.5363 3.82385 23.0357H3.81123Z" fill="black"/>
<path d="M32.446 16.4016H20.8315C20.9114 17.4406 21.2479 18.2357 21.8369 18.7868C22.4258 19.3378 23.1536 19.6113 24.0117 19.6113C25.2905 19.6113 26.1823 19.0728 26.6829 17.9917H32.1474C31.8655 19.0939 31.3607 20.0824 30.633 20.9616C29.901 21.8408 28.9882 22.5349 27.886 23.0313C26.7839 23.5319 25.5556 23.7801 24.1926 23.7801C22.552 23.7801 21.0923 23.4309 19.8093 22.7284C18.5262 22.0301 17.5293 21.0289 16.8057 19.7248C16.0864 18.425 15.7246 16.9022 15.7246 15.1606C15.7246 13.4191 16.078 11.9005 16.7889 10.5964C17.4998 9.29656 18.4926 8.29538 19.7756 7.59707C21.0544 6.89877 22.5268 6.54541 24.1884 6.54541C25.85 6.54541 27.2508 6.88615 28.5086 7.56763C29.7706 8.2491 30.755 9.21663 31.4659 10.4786C32.1768 11.7406 32.5302 13.2087 32.5302 14.8914C32.5302 15.371 32.5007 15.8716 32.4418 16.3932L32.446 16.4016ZM27.2845 13.5495C27.2845 12.6703 26.9858 11.9678 26.3843 11.4504C25.7827 10.9287 25.0339 10.6679 24.1337 10.6679C23.2335 10.6679 22.5478 10.9203 21.9589 11.4167C21.3699 11.9173 21.004 12.6282 20.8651 13.5495H27.2887H27.2845Z" fill="black"/>
<path d="M50.0375 16.4016H38.423C38.5029 17.4406 38.8394 18.2357 39.4284 18.7868C40.0173 19.3378 40.7451 19.6113 41.6032 19.6113C42.882 19.6113 43.7738 19.0728 44.2744 17.9917H49.7389C49.457 19.0939 48.9522 20.0824 48.2245 20.9616C47.4925 21.8408 46.5797 22.5349 45.4775 23.0313C44.3754 23.5319 43.1471 23.7801 41.7841 23.7801C40.1435 23.7801 38.6838 23.4309 37.4008 22.7284C36.1219 22.0301 35.1208 21.0289 34.4014 19.7248C33.6821 18.425 33.3203 16.9022 33.3203 15.1606C33.3203 13.4191 33.6737 11.9005 34.3846 10.5964C35.0955 9.29656 36.0883 8.29538 37.3713 7.59707C38.6501 6.89877 40.1225 6.54541 41.7841 6.54541C43.4457 6.54541 44.8465 6.88615 46.1043 7.56763C47.3663 8.2491 48.3507 9.21663 49.0616 10.4786C49.7725 11.7406 50.1259 13.2087 50.1259 14.8914C50.1259 15.371 50.0964 15.8716 50.0375 16.3932V16.4016ZM44.8718 13.5495C44.8718 12.6703 44.5731 11.9678 43.9716 11.4504C43.37 10.9287 42.6212 10.6679 41.721 10.6679C40.8208 10.6679 40.1351 10.9203 39.5462 11.4167C38.9572 11.9173 38.5912 12.6282 38.4524 13.5495H44.876H44.8718Z" fill="black"/>
<path d="M59.3101 7.41176C60.2103 6.88172 61.2115 6.6167 62.3137 6.6167V12.0475H60.9044C59.6256 12.0475 58.6623 12.3251 58.0229 12.872C57.3835 13.4231 57.0638 14.3864 57.0638 15.7704V23.5443H51.9316V6.79759H57.0638V9.5908C57.6653 8.66955 58.4141 7.946 59.3143 7.41596L59.3101 7.41176Z" fill="black"/>
<path d="M68.2959 23.1994C67.24 22.7199 66.4071 22.0636 65.7929 21.2349C65.1788 20.4062 64.8507 19.4807 64.8086 18.4543H68.4305C68.4936 19.1695 68.8344 19.771 69.4611 20.2506C70.0837 20.7301 70.8704 20.9741 71.8085 20.9741C72.7465 20.9741 73.5542 20.7848 74.0969 20.4062C74.6395 20.0276 74.9088 19.5396 74.9088 18.9465C74.9088 18.3113 74.6059 17.8402 74.0043 17.5331C73.3986 17.226 72.4437 16.8895 71.1312 16.5193C69.8608 16.1701 68.8259 15.8336 68.0309 15.5055C67.2316 15.1773 66.5417 14.6768 65.957 13.9995C65.3723 13.3222 65.082 12.4346 65.082 11.3283C65.082 10.428 65.347 9.60353 65.8813 8.85475C66.4113 8.10596 67.1769 7.51703 68.1697 7.08795C69.1625 6.65888 70.3025 6.44434 71.5939 6.44434C73.5164 6.44434 75.0686 6.93231 76.2465 7.90404C77.4243 8.87578 78.0511 10.2009 78.1353 11.8793H74.6353C74.5722 11.1221 74.2651 10.5164 73.7141 10.0663C73.163 9.61615 72.4142 9.38899 71.4719 9.38899C70.5296 9.38899 69.844 9.56146 69.3518 9.91062C68.8596 10.2598 68.6156 10.7183 68.6156 11.2946C68.6156 11.7447 68.7797 12.1233 69.1078 12.4304C69.4359 12.7375 69.8355 12.9773 70.3067 13.1497C70.7778 13.3222 71.4719 13.5452 72.3932 13.8102C73.6215 14.1383 74.6311 14.4706 75.4178 14.8072C76.2044 15.1437 76.8859 15.6401 77.458 16.2963C78.0301 16.9526 78.3288 17.8233 78.3498 18.9086C78.3498 19.872 78.0848 20.7301 77.5505 21.4873C77.0163 22.2445 76.2675 22.8377 75.2916 23.2667C74.3198 23.6958 73.1756 23.9104 71.8674 23.9104C70.5591 23.9104 69.3434 23.6706 68.2917 23.1868L68.2959 23.1994Z" fill="black"/>
<path d="M81.4737 3.83628C81.0446 3.4072 80.8301 2.87296 80.8301 2.23775C80.8301 1.60255 81.0446 1.07251 81.4737 0.639223C81.9028 0.210145 82.437 -0.00439453 83.0722 -0.00439453C83.7074 -0.00439453 84.208 0.210145 84.6371 0.639223C85.0662 1.0683 85.2807 1.60255 85.2807 2.23775C85.2807 2.87296 85.0662 3.40299 84.6371 3.83628C84.208 4.26956 83.6864 4.4799 83.0722 4.4799C82.4581 4.4799 81.907 4.26536 81.4737 3.83628ZM84.7885 6.72625V23.6454H81.2886V6.72625H84.7885Z" fill="black"/>
<path d="M98.8563 7.23128C99.8701 7.75291 100.661 8.40494 101.237 9.18317V6.72648H104.767V23.9233C104.767 25.4797 104.439 26.8679 103.782 28.0837C103.126 29.2994 102.18 30.2585 100.943 30.9568C99.7018 31.6509 98.2253 32 96.5048 32C94.2122 32 92.3066 31.4616 90.7922 30.3889C89.2778 29.3162 88.4154 27.8565 88.2135 26.014H91.684C91.949 26.8932 92.5169 27.6041 93.3877 28.1468C94.2584 28.6894 95.2975 28.9586 96.5048 28.9586C97.9182 28.9586 99.0582 28.5296 99.929 27.6672C100.8 26.809 101.233 25.5597 101.233 23.9191V21.0922C100.64 21.8915 99.8365 22.5603 98.8227 23.103C97.8088 23.6456 96.6562 23.9149 95.369 23.9149C93.8967 23.9149 92.5505 23.5405 91.3306 22.7917C90.1107 22.0429 89.1516 20.9997 88.4448 19.6577C87.7381 18.3158 87.3848 16.7972 87.3848 15.0977C87.3848 13.3982 87.7381 11.8923 88.4448 10.584C89.1516 9.27571 90.1149 8.2535 91.3306 7.52995C92.5463 6.80641 93.8967 6.44043 95.369 6.44043C96.6773 6.44043 97.8425 6.70124 98.8563 7.22287V7.23128ZM100.514 12.1278C100.034 11.2697 99.4032 10.6134 98.6249 10.1633C97.8467 9.7132 97.0096 9.48605 96.1052 9.48605C95.2007 9.48605 94.3636 9.70479 93.5854 10.1465C92.8071 10.5882 92.1761 11.2318 91.6966 12.0815C91.217 12.9313 90.9772 13.9409 90.9772 15.1061C90.9772 16.2714 91.217 17.2978 91.6966 18.177C92.1761 19.0562 92.8113 19.7292 93.6022 20.1878C94.3888 20.6505 95.226 20.8777 96.1052 20.8777C96.9843 20.8777 97.8467 20.6547 98.6249 20.2004C99.4032 19.7503 100.034 19.0898 100.514 18.2191C100.993 17.3483 101.237 16.3303 101.237 15.165C101.237 13.9998 100.997 12.986 100.514 12.1236V12.1278Z" fill="black"/>
<path d="M119.806 7.27744C120.862 7.82851 121.682 8.64881 122.28 9.73413C122.873 10.8194 123.172 12.1277 123.172 13.6631V23.6413H119.701V14.1848C119.701 12.6704 119.322 11.5093 118.565 10.6974C117.808 9.88977 116.773 9.48593 115.465 9.48593C114.157 9.48593 113.118 9.88977 112.348 10.6974C111.582 11.5051 111.195 12.6662 111.195 14.1848V23.6413H107.695V6.72637H111.195V8.66143C111.767 7.96733 112.499 7.42467 113.391 7.03345C114.283 6.64644 115.229 6.44873 116.231 6.44873C117.56 6.44873 118.755 6.72637 119.806 7.27744Z" fill="black"/>
<path d="M126.253 10.5923C126.96 9.28401 127.923 8.2618 129.139 7.53825C130.355 6.81471 131.705 6.44873 133.178 6.44873C134.507 6.44873 135.668 6.70954 136.665 7.23117C137.658 7.75279 138.453 8.40482 139.046 9.18305V6.72637H142.575V23.6455H139.046V21.1257C138.453 21.925 137.645 22.5897 136.619 23.1239C135.596 23.6581 134.427 23.9232 133.119 23.9232C131.663 23.9232 130.334 23.5488 129.127 22.8C127.919 22.0512 126.96 21.008 126.253 19.666C125.547 18.3241 125.193 16.8055 125.193 15.106C125.193 13.4065 125.547 11.9006 126.253 10.5923ZM138.318 12.1277C137.839 11.2696 137.208 10.6133 136.429 10.1632C135.651 9.71309 134.814 9.48593 133.91 9.48593C133.005 9.48593 132.168 9.70468 131.39 10.1464C130.612 10.5881 129.981 11.2317 129.501 12.0814C129.021 12.9312 128.782 13.9408 128.782 15.106C128.782 16.2713 129.021 17.2977 129.501 18.1769C129.981 19.0561 130.616 19.7291 131.407 20.1877C132.193 20.6504 133.03 20.8775 133.91 20.8775C134.789 20.8775 135.651 20.6546 136.429 20.2003C137.208 19.7502 137.839 19.0897 138.318 18.2189C138.798 17.3482 139.042 16.3302 139.042 15.1649C139.042 13.9997 138.802 12.9859 138.318 12.1235V12.1277Z" fill="black"/>
<path d="M149 0.920898V23.6452H145.5V0.920898H149Z" fill="black"/>
<path d="M155.327 23.1994C154.271 22.7199 153.438 22.0636 152.824 21.2349C152.21 20.4062 151.882 19.4807 151.84 18.4543H155.462C155.525 19.1695 155.866 19.771 156.492 20.2506C157.115 20.7301 157.902 20.9741 158.84 20.9741C159.778 20.9741 160.585 20.7848 161.128 20.4062C161.671 20.0276 161.94 19.5396 161.94 18.9465C161.94 18.3113 161.637 17.8402 161.036 17.5331C160.43 17.226 159.475 16.8895 158.162 16.5193C156.892 16.1701 155.857 15.8336 155.062 15.5055C154.263 15.1773 153.573 14.6768 152.988 13.9995C152.404 13.3222 152.113 12.4346 152.113 11.3283C152.113 10.428 152.378 9.60353 152.913 8.85475C153.443 8.10596 154.208 7.51703 155.201 7.08795C156.194 6.65888 157.334 6.44434 158.625 6.44434C160.548 6.44434 162.1 6.93231 163.278 7.90404C164.456 8.87578 165.082 10.2009 165.167 11.8793H161.667C161.603 11.1221 161.296 10.5164 160.745 10.0663C160.194 9.61615 159.445 9.38899 158.503 9.38899C157.561 9.38899 156.875 9.56146 156.383 9.91062C155.891 10.2598 155.647 10.7183 155.647 11.2946C155.647 11.7447 155.811 12.1233 156.139 12.4304C156.467 12.7375 156.867 12.9773 157.338 13.1497C157.809 13.3222 158.503 13.5452 159.424 13.8102C160.653 14.1383 161.662 14.4706 162.449 14.8072C163.236 15.1437 163.917 15.6401 164.489 16.2963C165.061 16.9526 165.36 17.8233 165.381 18.9086C165.381 19.872 165.116 20.7301 164.582 21.4873C164.048 22.2445 163.299 22.8377 162.323 23.2667C161.351 23.6958 160.207 23.9104 158.899 23.9104C157.59 23.9104 156.375 23.6706 155.323 23.1868L155.327 23.1994Z" fill="black"/>
</g>
<defs>
<clipPath id="clip0_2223_278">
<rect width="165.385" height="32" fill="white"/>
</clipPath>
</defs>
</svg>
