<svg width="33" height="24" viewBox="0 0 33 24" fill="none" xmlns="http://www.w3.org/2000/svg">
<path d="M21.8627 0C23.1967 0 24.264 1.08605 24.264 2.40356V5.21662C24.264 5.96439 24.5486 6.67656 25.0822 7.19288C25.6159 7.7092 26.3274 8.01187 27.0567 8.01187H32.2507V16.0237H27.0567C26.3096 16.0237 25.5981 16.3086 25.0822 16.8427C24.5664 17.3769 24.264 18.089 24.264 18.819V21.5964C24.264 22.9318 23.179 24 21.8627 24H16.2773V15.9881H21.4713C22.2184 15.9881 22.9299 15.7033 23.4458 15.1691C23.9616 14.635 24.264 13.9228 24.264 13.1929V10.7715C24.264 10.0237 23.9794 9.31157 23.4458 8.79525C22.9121 8.27893 22.2006 7.97626 21.4713 7.97626H16.2773V0H21.8805H21.8627Z" fill="white"/>
<path d="M5.85311 0C7.18719 0 8.25445 1.08605 8.25445 2.40356V5.21662C8.25445 5.96439 8.53905 6.67656 9.07268 7.19288C9.60631 7.7092 10.3178 8.01187 11.0471 8.01187H16.2411V16.0237H11.0471C10.3 16.0237 9.58852 16.3086 9.07268 16.8427C8.55684 17.3769 8.25445 18.089 8.25445 18.819V21.5964C8.25445 22.9318 7.1694 24 5.85311 24H0.25V15.9881H5.444C6.19108 15.9881 6.90259 15.7033 7.41843 15.1691C7.93427 14.635 8.23666 13.9228 8.23666 13.1929V10.7715C8.23666 10.0237 7.95206 9.31157 7.41843 8.79525C6.8848 8.27893 6.17329 7.97626 5.444 7.97626H0.25V0H5.85311Z" fill="white"/>
</svg>
